<?xml version="1.0" encoding="UTF-8" standalone="no" ?>
<!DOCTYPE svg PUBLIC "-//W3C//DTD SVG 1.1//EN" "http://www.w3.org/Graphics/SVG/1.1/DTD/svg11.dtd">
<svg xmlns="http://www.w3.org/2000/svg" xmlns:xlink="http://www.w3.org/1999/xlink" version="1.1" width="1080" height="1080" viewBox="0 0 1080 1080" xml:space="preserve">
<desc>Created with Fabric.js 5.2.4</desc>
<defs>
</defs>
<g transform="matrix(1 0 0 1 540 540)" id="e30e6bcc-34c2-4ec0-b55e-541451256e5b"  >
<rect style="stroke: none; stroke-width: 1; stroke-dasharray: none; stroke-linecap: butt; stroke-dashoffset: 0; stroke-linejoin: miter; stroke-miterlimit: 4; fill: rgb(255,255,255); fill-rule: nonzero; opacity: 1; visibility: hidden;" vector-effect="non-scaling-stroke"  x="-540" y="-540" rx="0" ry="0" width="1080" height="1080" />
</g>
<g transform="matrix(1 0 0 1 540 540)" id="9a454a80-7fb3-4a70-b683-4d85db8507e4"  >
</g>
<g transform="matrix(41.54 0 0 41.54 540 540)"  >
<path style="stroke: none; stroke-width: 1; stroke-dasharray: none; stroke-linecap: butt; stroke-dashoffset: 0; stroke-linejoin: miter; stroke-miterlimit: 4; fill: rgb(17,17,17); fill-rule: nonzero; opacity: 1;"  transform=" translate(-12.73, -15.99)" d="M 14.4 5.52 L 14.4 5.4399999999999995 Q 14.4 4.879999999999999 14.76 4.4399999999999995 Q 15.12 4 15.68 3.9999999999999996 Q 16.240000000000002 3.999999999999999 16.68 4.359999999999999 Q 17.119999999999997 4.72 17.16 5.319999999999999 Q 17.200000000000003 5.919999999999999 16.8 6.319999999999999 Q 16.4 6.72 15.84 6.72 L 15.6 6.8 L 15.68 6.92 L 15.6 7.36 L 15.44 8.64 Q 15.52 8.72 15.52 8.8 L 15.36 9.600000000000001 Q 15.28 9.760000000000002 15.2 9.840000000000002 L 15.12 10.160000000000002 Q 14.959999999999999 10.800000000000002 14.84 11.200000000000003 Q 14.72 11.600000000000003 14.64 11.840000000000003 L 14.64 12 Q 14.56 12.4 14.520000000000001 12.64 Q 14.480000000000002 12.88 14.240000000000002 13.440000000000001 Q 14.080000000000002 13.760000000000002 14.240000000000002 14.48 L 14.320000000000002 14.56 Q 14.320000000000002 14.8 14.520000000000001 15.120000000000001 Q 14.72 15.440000000000001 14.72 15.680000000000001 Q 14.8 17.28 14.48 18.400000000000002 L 14.64 18.880000000000003 Q 15.600000000000001 19.360000000000003 15.200000000000001 19.92 L 15.600000000000001 20.080000000000002 Q 16.560000000000002 20.560000000000002 16.96 20.92 Q 17.36 21.28 17.76 21.680000000000003 Q 18.080000000000002 21.76 18.240000000000002 21.92 L 18.48 22 Q 20.16 23.12 21.84 24.72 L 22.16 24.959999999999997 L 22.16 25.039999999999996 L 22.080000000000002 25.199999999999996 L 22.32 25.359999999999996 L 22.4 25.359999999999996 Q 22.639999999999997 25.519999999999996 22.72 25.519999999999996 L 22.799999999999997 25.519999999999996 Q 22.879999999999995 25.519999999999996 22.959999999999997 25.439999999999998 L 23.119999999999997 25.36 Q 23.279999999999998 25.2 23.439999999999998 25.12 L 23.759999999999998 25.12 Q 23.839999999999996 25.12 23.759999999999998 25.2 L 23.439999999999998 25.36 L 23.04 25.84 L 23.599999999999998 25.84 L 24.159999999999997 25.919999999999998 Q 24.399999999999995 25.84 24.559999999999995 25.759999999999998 L 24.959999999999994 25.52 Q 25.199999999999992 25.44 25.439999999999994 25.68 L 25.519999999999992 25.68 Q 25.59999999999999 25.759999999999998 25.439999999999994 25.919999999999998 L 24.479999999999993 26.799999999999997 Q 24.079999999999995 27.119999999999997 23.759999999999994 27.199999999999996 L 22.719999999999995 27.919999999999995 Q 22.639999999999997 27.999999999999993 22.559999999999995 27.919999999999995 L 22.319999999999997 27.599999999999994 L 22.159999999999997 27.279999999999994 L 21.959999999999997 26.999999999999993 L 21.72 26.679999999999993 L 21.52 26.439999999999994 L 21.36 26.239999999999995 L 21.04 25.999999999999996 Q 20.88 25.999999999999996 20.72 25.919999999999998 L 19.68 25.119999999999997 Q 19.44 25.119999999999997 19.12 24.88 Q 17.92 23.84 17.52 23.599999999999998 L 17.04 23.279999999999998 L 16.08 23.119999999999997 Q 15.599999999999998 23.04 14.799999999999999 22.639999999999997 L 14.159999999999998 22.319999999999997 Q 13.519999999999998 21.999999999999996 13.279999999999998 21.999999999999996 L 12.959999999999997 21.839999999999996 Q 12.639999999999997 21.759999999999998 12.479999999999997 21.679999999999996 L 12.319999999999997 21.519999999999996 Q 12.159999999999997 21.519999999999996 11.999999999999996 21.599999999999994 L 10.399999999999997 22.399999999999995 L 8.399999999999997 23.279999999999994 Q 7.599999999999997 23.919999999999995 6.879999999999997 24.319999999999993 L 5.999999999999997 24.71999999999999 L 4.639999999999997 25.679999999999993 Q 4.479999999999997 25.839999999999993 4.319999999999997 25.679999999999993 L 4.159999999999997 25.839999999999993 Q 3.9199999999999964 25.91999999999999 3.8399999999999967 25.91999999999999 L 3.519999999999997 26.07999999999999 L 3.519999999999997 26.23999999999999 L 3.3599999999999968 26.23999999999999 L 3.1999999999999966 26.47999999999999 Q 3.0399999999999965 26.79999999999999 2.879999999999997 26.83999999999999 Q 2.719999999999997 26.87999999999999 2.6799999999999966 26.95999999999999 Q 2.639999999999996 27.039999999999992 2.5999999999999965 27.07999999999999 L 2.4399999999999964 27.23999999999999 L 2.1999999999999966 27.39999999999999 L 1.8399999999999967 27.359999999999992 L 1.3599999999999968 27.43999999999999 L 1.0399999999999967 27.51999999999999 Q 0.6399999999999967 27.599999999999987 0.3999999999999967 27.399999999999988 Q 0.1599999999999967 27.19999999999999 -3.3306690738754696e-15 26.799999999999986 Q -0.16000000000000333 26.559999999999988 0.15999999999999667 26.399999999999988 L 0.23999999999999666 26.31999999999999 Q 0.3199999999999967 26.23999999999999 0.47999999999999665 26.23999999999999 L 0.9599999999999966 26.23999999999999 L 1.6 26 L 1.9200000000000002 25.92 Q 1.9200000000000002 25.76 2 25.680000000000003 Q 2.08 25.600000000000005 2.24 25.600000000000005 L 2.24 25.520000000000007 Q 2.16 25.360000000000007 2.16 25.200000000000006 Q 2.08 25.040000000000006 2.12 24.960000000000008 Q 2.16 24.88000000000001 2.2 24.88000000000001 L 2.24 24.88000000000001 L 2.3200000000000003 25.120000000000008 Q 2.4000000000000004 25.520000000000007 2.5600000000000005 25.360000000000007 L 2.6400000000000006 25.200000000000006 Q 2.7200000000000006 25.040000000000006 2.880000000000001 25.040000000000006 L 3.040000000000001 25.200000000000006 L 3.200000000000001 25.040000000000006 L 3.120000000000001 24.960000000000008 Q 3.120000000000001 24.88000000000001 3.200000000000001 24.88000000000001 L 3.520000000000001 24.56000000000001 Q 3.920000000000001 24.08000000000001 4.48 23.68000000000001 Q 5.6000000000000005 22.80000000000001 6.880000000000001 22.32000000000001 Q 7.280000000000001 21.920000000000012 7.760000000000001 21.920000000000012 Q 8.08 21.360000000000014 8.72 20.720000000000013 Q 9.280000000000001 20.320000000000014 9.520000000000001 20.160000000000014 Q 9.680000000000001 19.840000000000014 9.920000000000002 19.840000000000014 L 10 19.840000000000014 L 10.16 19.680000000000014 Q 10.32 19.600000000000016 10.4 19.520000000000014 L 10.4 19.120000000000015 Q 10.4 18.720000000000017 10.48 18.480000000000015 Q 10.56 18.240000000000013 10.88 18.240000000000016 L 11.200000000000001 17.920000000000016 Q 11.040000000000001 17.600000000000016 11.040000000000001 17.200000000000017 L 10.96 17.200000000000017 Q 10.8 16.96000000000002 10.8 16.720000000000017 Q 10.56 16.320000000000018 10.48 16.080000000000016 L 10.24 16.080000000000016 Q 10.16 16.320000000000014 9.84 16.400000000000016 L 9.76 16.560000000000016 Q 9.44 17.120000000000015 9.2 17.400000000000016 Q 8.959999999999999 17.680000000000017 8.319999999999999 18.080000000000016 Q 7.919999999999998 18.480000000000015 7.759999999999998 18.960000000000015 Q 7.679999999999998 19.200000000000014 7.759999999999998 19.440000000000015 L 7.679999999999998 19.600000000000016 L 7.759999999999998 19.600000000000016 Q 7.759999999999998 19.760000000000016 7.839999999999998 19.760000000000016 L 7.919999999999998 19.760000000000016 Q 8.079999999999998 19.840000000000014 8.079999999999998 19.960000000000015 Q 8.079999999999998 20.080000000000016 7.839999999999998 20.040000000000013 Q 7.599999999999998 20.00000000000001 7.479999999999998 19.880000000000013 Q 7.359999999999998 19.760000000000016 7.279999999999998 19.760000000000012 L 7.039999999999997 20.00000000000001 Q 6.879999999999997 20.24000000000001 6.719999999999997 20.20000000000001 Q 6.559999999999997 20.16000000000001 6.639999999999997 20.08000000000001 L 6.719999999999997 20.00000000000001 Q 6.799999999999997 19.84000000000001 6.719999999999997 19.84000000000001 L 6.079999999999997 20.00000000000001 Q 5.999999999999997 20.08000000000001 5.879999999999997 20.00000000000001 Q 5.759999999999997 19.920000000000012 5.919999999999997 19.84000000000001 L 6.319999999999998 19.68000000000001 Q 6.319999999999998 19.600000000000012 6.2399999999999975 19.600000000000012 Q 5.919999999999997 19.760000000000012 5.599999999999998 19.68000000000001 L 5.1999999999999975 19.600000000000012 L 5.119999999999997 19.520000000000014 Q 5.119999999999997 19.440000000000015 5.1999999999999975 19.440000000000015 Q 5.519999999999998 19.520000000000014 5.999999999999997 19.360000000000017 L 6.559999999999997 19.12000000000002 L 7.199999999999997 18.40000000000002 L 7.279999999999997 18.24000000000002 Q 7.599999999999997 17.60000000000002 7.959999999999996 17.08000000000002 Q 8.319999999999997 16.56000000000002 8.719999999999997 16.24000000000002 L 8.799999999999997 15.92000000000002 Q 8.959999999999997 15.60000000000002 9.119999999999997 15.360000000000019 Q 9.279999999999998 15.120000000000019 9.519999999999998 14.720000000000018 L 9.759999999999998 14.400000000000018 Q 10.079999999999998 13.920000000000018 10.479999999999999 13.920000000000018 L 10.719999999999999 13.680000000000017 Q 10.799999999999999 13.600000000000017 10.799999999999999 13.440000000000017 L 10.959999999999999 13.280000000000017 L 10.879999999999999 13.200000000000017 Q 10.399999999999999 12.800000000000017 10.399999999999999 12.480000000000016 Q 10.319999999999999 11.920000000000016 10.759999999999998 11.520000000000017 Q 11.199999999999998 11.120000000000019 11.639999999999999 11.160000000000018 Q 12.08 11.200000000000017 12.319999999999999 11.440000000000017 L 12.479999999999999 11.600000000000017 Q 12.559999999999999 11.600000000000017 12.559999999999999 11.680000000000017 L 12.879999999999999 11.840000000000018 L 12.879999999999999 12.080000000000018 Q 13.04 12.240000000000018 13.04 12.320000000000018 Q 13.2 12.080000000000018 13.52 11.760000000000018 L 13.92 10.480000000000018 Q 13.92 10.160000000000018 14.08 9.840000000000018 L 14.24 9.600000000000017 L 14.24 9.440000000000017 L 14.48 8.480000000000018 L 14.64 8.480000000000018 L 14.88 7.520000000000018 Q 14.96 7.280000000000018 14.88 6.960000000000019 L 14.56 6.160000000000019 z" stroke-linecap="round" />
</g>
</svg>