<?xml version="1.0" encoding="UTF-8" standalone="no" ?>
<!DOCTYPE svg PUBLIC "-//W3C//DTD SVG 1.1//EN" "http://www.w3.org/Graphics/SVG/1.1/DTD/svg11.dtd">
<svg xmlns="http://www.w3.org/2000/svg" xmlns:xlink="http://www.w3.org/1999/xlink" version="1.1" width="1080" height="1080" viewBox="0 0 1080 1080" xml:space="preserve">
<desc>Created with Fabric.js 5.2.4</desc>
<defs>
</defs>
<g transform="matrix(1 0 0 1 540 540)" id="f8e354e9-f981-482a-96bb-d151dca38d92"  >
<rect style="stroke: none; stroke-width: 1; stroke-dasharray: none; stroke-linecap: butt; stroke-dashoffset: 0; stroke-linejoin: miter; stroke-miterlimit: 4; fill: rgb(255,255,255); fill-rule: nonzero; opacity: 1; visibility: hidden;" vector-effect="non-scaling-stroke"  x="-540" y="-540" rx="0" ry="0" width="1080" height="1080" />
</g>
<g transform="matrix(1 0 0 1 540 540)" id="24f3d403-292a-40d1-af98-97d86903aa37"  >
</g>
<g transform="matrix(45 0 0 45 540 540)"  >
<path style="stroke: none; stroke-width: 1; stroke-dasharray: none; stroke-linecap: butt; stroke-dashoffset: 0; stroke-linejoin: miter; stroke-miterlimit: 4; fill: rgb(0,0,0); fill-rule: evenodd; opacity: 1;"  transform=" translate(-12, -11.86)" d="M 21 8.719 L 7.836 14.303 C 6.74 14.768 5.818 15 5.075 15 C 4.239 15 3.63 14.705 3.2560000000000002 14.116 C 2.7710000000000004 13.356 2.983 12.134 3.8150000000000004 10.844 C 4.309 10.09 4.937 9.398 5.549 8.735999999999999 C 5.405 8.969999999999999 4.134 11.084999999999999 5.524 12.081 C 5.799 12.280999999999999 6.19 12.379 6.671 12.379 C 7.057 12.379 7.5 12.315999999999999 7.987 12.189 L 21 8.719 z" stroke-linecap="round" />
</g>
</svg>